{"title":"The Queen of Sheba s Pearls[x264][AC3(5.1)].mkv","uid":5278234,"size":964742418,"categoryP":"video","categoryS":"movies","magnet":"?xt=urn:btih:79b8ed13157461c25cd76daaa095947d24328458&amp;dn=The+Queen+of+Sheba+s+Pearls%5Bx264%5D%5BAC3%285.1%29%5D.mkv&amp;tr=udp%3A%2F%2Ftracker.openbittorrent.com%3A80&amp;tr=udp%3A%2F%2Fopen.demonii.com%3A1337&amp;tr=udp%3A%2F%2Ftracker.coppersurfer.tk%3A6969&amp;tr=udp%3A%2F%2Fexodus.desync.com%3A6969","seeders":1,"leechers":0,"uploader":"Zen_Bud","files":-1,"time":1263455310,"description":"General\nComplete name                    : The Queen of Sheba's Pearls.mkv\nFormat                           : Matroska\nFile size                        : 920 MiB\nDuration                         : 2h 5mn\nOverall bit rate                 : 1 026 Kbps\n\n\nVideo\nID                               : 1\nFormat                           : AVC\nDuration                         : 2h 5mn\nBit rate                         : 557 Kbps\nWidth                            : 706 pixels\nHeight                           : 438 pixels\nDisplay aspect ratio             : 2.25:1\nFrame rate                       : 25.000 fps\nResolution                       : 8 bits\nColorimetry                      : 4:2:0\nScan type                        : Progressive\nBits/(Pixel*Frame)               : 0.072\nStream size                      : 500 MiB (54%)\nWriting library                  : x264 core 79\n\n\nAudio\nID                               : 2\nFormat                           : AC-3\nFormat/Info                      : Audio Coding 3\nCodec ID                         : A_AC3\nDuration                         : 2h 5mn\nBit rate mode                    : Constant\nBit rate                         : 448 Kbps\nChannel(s)                       : 6 channels\nChannel positions                : Front: L C R, Surround: L R, LFE\nSampling rate                    : 48.0 KHz\nStream size                      : 402 MiB (44%)\nLanguage                         : English\n\nText #1\nLanguage                         : Swedish\n\nText #2\nLanguage                         : English\n\n\n\n","torrent":{"xt":"urn:btih:79b8ed13157461c25cd76daaa095947d24328458","amp;dn":"The+Queen+of+Sheba+s+Pearls%5Bx264%5D%5BAC3%285.1%29%5D.mkv","amp;tr":["udp%3A%2F%2Ftracker.openbittorrent.com%3A80","udp%3A%2F%2Fopen.demonii.com%3A1337","udp%3A%2F%2Ftracker.coppersurfer.tk%3A6969","udp%3A%2F%2Fexodus.desync.com%3A6969"],"infoHash":"79b8ed13157461c25cd76daaa095947d24328458","infoHashBuffer":{"type":"Buffer","data":[121,184,237,19,21,116,97,194,92,215,109,170,160,149,148,125,36,50,132,88]},"announce":[],"urlList":[]}}